<?xml version="1.0" encoding="utf-8"?>
<!-- Generator: Adobe Illustrator 18.0.0, SVG Export Plug-In . SVG Version: 6.00 Build 0)  -->
<!DOCTYPE svg PUBLIC "-//W3C//DTD SVG 1.1//EN" "http://www.w3.org/Graphics/SVG/1.1/DTD/svg11.dtd">
<svg version="1.1" id="Capa_1" xmlns="http://www.w3.org/2000/svg" xmlns:xlink="http://www.w3.org/1999/xlink" x="0px" y="0px"
	 viewBox="0 0 64 64" enable-background="new 0 0 64 64" xml:space="preserve">
<g>
	<path fill="#A5B4FC" d="M60.7,0h-20c-1.8,0-3.3,1.5-3.3,3.3v20c0,1.8,1.5,3.3,3.3,3.3h9.6c-0.1,5.2-1.3,9.4-3.6,12.6
		c-1.8,2.5-4.6,4.5-8.2,6.2C36.8,46,36,48,36.8,49.6l2.4,5c0.8,1.6,2.6,2.3,4.3,1.6c4.3-1.9,8-4.3,11-7.1c3.6-3.5,6.2-7.5,7.5-11.9
		c1.4-4.4,2-10.5,2-18.2V3.3C64,1.5,62.5,0,60.7,0z"/>
	<path fill="#A5B4FC" d="M7,56.2c4.3-1.9,7.9-4.2,11-7.1c3.7-3.5,6.2-7.5,7.5-11.9s2-10.5,2-18.2V3.3C27.5,1.5,26,0,24.2,0h-20
		C2.4,0,1,1.5,1,3.3v20c0,1.8,1.5,3.3,3.3,3.3h9.6c-0.1,5.2-1.3,9.4-3.6,12.6c-1.8,2.5-4.6,4.5-8.2,6.2C0.3,46-0.5,48,0.3,49.6
		l2.4,5C3.4,56.2,5.3,56.9,7,56.2z"/>
</g>
</svg>
